<svg width="20" height="20" viewBox="0 0 20 20" fill="none" xmlns="http://www.w3.org/2000/svg">
<path d="M16.6666 10.4165V5.6665C16.6666 4.26637 16.6666 3.56631 16.3942 3.03153C16.1545 2.56112 15.772 2.17867 15.3016 1.93899C14.7668 1.6665 14.0668 1.6665 12.6666 1.6665H7.33331C5.93318 1.6665 5.23312 1.6665 4.69834 1.93899C4.22793 2.17867 3.84548 2.56112 3.6058 3.03153C3.33331 3.56631 3.33331 4.26637 3.33331 5.6665V14.3332C3.33331 15.7333 3.33331 16.4334 3.6058 16.9681C3.84548 17.4386 4.22793 17.821 4.69834 18.0607C5.23312 18.3332 5.93318 18.3332 7.33331 18.3332H9.99998M11.6666 9.1665H6.66665M8.33331 12.4998H6.66665M13.3333 5.83317H6.66665M12.0833 15.8332L13.75 17.4998L17.5 13.7498" stroke="#118DE8" stroke-width="2" stroke-linecap="round" stroke-linejoin="round"/>
</svg>
