<svg width="21" height="20" viewBox="0 0 21 20" fill="none" xmlns="http://www.w3.org/2000/svg">
<g clip-path="url(#clip0_0_1373)">
<path d="M10.4997 13.6362C12.006 13.6362 13.227 12.4151 13.227 10.9089C13.227 9.40268 12.006 8.18164 10.4997 8.18164C8.9935 8.18164 7.77246 9.40268 7.77246 10.9089C7.77246 12.4151 8.9935 13.6362 10.4997 13.6362Z" stroke="white" stroke-width="2" stroke-linecap="round" stroke-linejoin="round"/>
<path d="M9.591 2.72656H7.77282C7.53171 2.72656 7.30048 2.82234 7.12999 2.99283C6.9595 3.16332 6.86372 3.39455 6.86372 3.63565C6.86372 4.11787 6.67217 4.58033 6.33119 4.9213C5.99022 5.26228 5.52775 5.45383 5.04554 5.45383H4.13645H3.22736C2.74515 5.45383 2.28269 5.64539 1.94171 5.98637C1.60074 6.32734 1.40918 6.7898 1.40918 7.27202V15.4538C1.40918 15.936 1.60074 16.3985 1.94171 16.7395C2.28269 17.0805 2.74515 17.272 3.22736 17.272H15.9546C16.4368 17.272 16.8993 17.0805 17.2403 16.7395C17.5813 16.3985 17.7728 15.936 17.7728 15.4538V9.0902" stroke="white" stroke-width="2" stroke-linecap="round" stroke-linejoin="round"/>
<path d="M13.2275 4.54492H18.6821" stroke="white" stroke-width="2" stroke-linecap="round" stroke-linejoin="round"/>
<path d="M15.9541 1.81836V7.27291" stroke="white" stroke-width="2" stroke-linecap="round" stroke-linejoin="round"/>
</g>
<defs>
<clipPath id="clip0_0_1373">
<rect width="20" height="20" fill="white" transform="translate(0.5)"/>
</clipPath>
</defs>
</svg>
