<svg width="33" height="27" viewBox="0 0 33 27" fill="none" xmlns="http://www.w3.org/2000/svg">
<path d="M30.8062 0.109371L1.71862 11.3367C1.70132 11.3433 1.68454 11.3513 1.66844 11.3605C1.43256 11.4937 -0.213523 12.498 2.10756 13.3984L2.1314 13.4072L9.05763 15.6391C9.11048 15.6563 9.16643 15.6617 9.22159 15.6549C9.27674 15.6482 9.32976 15.6296 9.37694 15.6003L26.5561 4.90927C26.5982 4.88305 26.6451 4.8654 26.6941 4.85734C26.9331 4.81792 27.6213 4.74408 27.1859 5.29534C26.6935 5.92106 14.9595 16.4094 13.6571 17.5726C13.582 17.6399 13.5356 17.7332 13.5273 17.8335L12.9589 24.5913C12.9589 24.6601 12.9749 24.728 13.0057 24.7896C13.0365 24.8512 13.0813 24.9048 13.1365 24.9461C13.2148 24.9953 13.3069 25.0181 13.3991 25.0111C13.4914 25.0041 13.579 24.9677 13.649 24.9073L17.7642 21.2387C17.8292 21.1808 17.9121 21.1468 17.9992 21.1423C18.0863 21.1379 18.1722 21.1633 18.2428 21.2143L25.4225 26.414L25.4457 26.4297C25.6195 26.5367 27.4964 27.6261 28.0384 25.1933L32.9943 1.68806C33.0012 1.6136 33.0683 0.795161 32.4817 0.311479C31.8657 -0.194103 30.9937 0.0611905 30.8626 0.0887222C30.8433 0.0940922 30.8244 0.100997 30.8062 0.109371Z" fill="#009EEB"/>
</svg>
