<svg width="18" height="18" viewBox="0 0 18 18" fill="none" xmlns="http://www.w3.org/2000/svg">
<g clip-path="url(#clip0_0_2785)">
<path fill-rule="evenodd" clip-rule="evenodd" d="M0.00987012 4.57933C0.364526 7.85118 1.94209 11.0352 4.45183 13.545C6.96156 16.0547 10.1458 17.6323 13.4175 17.9871C13.4778 17.9934 13.5377 17.9969 13.5964 17.9969C13.9785 17.9969 14.3264 17.8594 14.6113 17.5943L17.5053 14.9002C17.854 14.5754 18.0328 14.1212 17.9951 13.6534C17.9577 13.1908 17.7124 12.7755 17.3215 12.5142L14.6528 10.7301C14.0411 10.3214 13.2507 10.3992 12.7307 10.9193C12.6194 11.0306 12.5093 11.151 12.3929 11.2782C11.8121 11.9141 11.3615 12.3527 10.8456 12.2011C8.511 11.515 6.48182 9.48563 5.79589 7.15119C5.70873 6.85493 5.78397 6.55961 6.00225 6.34133C6.09823 6.24535 6.20827 6.14382 6.32502 6.03638C6.67296 5.71509 7.06784 5.35112 7.3069 4.93054C7.61807 4.38295 7.60432 3.84924 7.26651 3.34398L5.48261 0.675301C5.22171 0.285383 4.80807 0.0400977 4.34685 0.00195312H4.09436C3.71738 0.0333125 3.36335 0.20491 3.09666 0.491188L0.40246 3.38536C0.0963545 3.71403 -0.0393838 4.12691 0.00987012 4.57933Z" fill="#21211B"/>
</g>
<defs>
<clipPath id="clip0_0_2785">
<rect width="18" height="18" fill="white"/>
</clipPath>
</defs>
</svg>
