<svg width="24" height="20" viewBox="0 0 24 20" fill="none" xmlns="http://www.w3.org/2000/svg">
<path d="M22.407 0.0783225L1.27505 8.11839C1.26247 8.12315 1.25029 8.12884 1.23859 8.13542C1.06723 8.23086 -0.128648 8.95004 1.55761 9.59484L1.57493 9.60112L6.60681 11.1994C6.6452 11.2117 6.68585 11.2156 6.72592 11.2108C6.76599 11.206 6.80451 11.1926 6.83878 11.1717L19.3194 3.51562C19.35 3.49684 19.384 3.4842 19.4196 3.47842C19.5933 3.45019 20.0932 3.39732 19.7769 3.79209C19.4192 4.24018 10.8945 11.751 9.94833 12.584C9.89377 12.6322 9.86002 12.6991 9.85399 12.7709L9.44108 17.6103C9.44103 17.6595 9.45266 17.7082 9.47505 17.7523C9.49744 17.7964 9.52997 17.8347 9.57006 17.8643C9.62695 17.8996 9.69385 17.9159 9.7609 17.9109C9.82794 17.9059 9.89157 17.8798 9.9424 17.8365L12.9321 15.2094C12.9793 15.1679 13.0396 15.1436 13.1028 15.1404C13.1661 15.1372 13.2285 15.1554 13.2798 15.1919L18.4958 18.9155L18.5127 18.9267C18.6389 19.0034 20.0025 19.7835 20.3963 18.0413L23.9967 1.20885C24.0017 1.15553 24.0504 0.569428 23.6243 0.223055C23.1768 -0.139001 22.5433 0.0438196 22.448 0.0635355C22.434 0.067381 22.4203 0.0723259 22.407 0.0783225Z" fill="white"/>
</svg>
