<svg width="22" height="23" viewBox="0 0 22 23" fill="none" xmlns="http://www.w3.org/2000/svg">
<path d="M11.1657 20.4998C16.5044 20.4998 20.8324 16.1719 20.8324 10.8332C20.8324 5.49442 16.5044 1.1665 11.1657 1.1665C5.82694 1.1665 1.49902 5.49442 1.49902 10.8332C1.49902 16.1719 5.82694 20.4998 11.1657 20.4998Z" stroke="white" stroke-width="2"/>
<path d="M2.44934 16.1331L1.74121 22.0497L7.24902 20.3749L7.54899 18.6416L4.14933 15.9331L2.44934 16.1331Z" fill="white"/>
<path d="M3.49902 19.75C3.49902 19.7167 4.12402 14.125 4.12402 14.125L9.12402 17.875L3.49902 19.75Z" fill="#27D045"/>
<path d="M6.98789 6.04384C6.64755 6.28 6.35739 6.58131 6.13425 6.93032C5.91111 7.27934 5.7594 7.66914 5.68788 8.07717C5.52122 9.37717 6.32122 10.7105 6.32122 10.7105C7.13272 11.9178 8.09617 13.0157 9.18788 13.9772C10.1429 14.7328 11.2271 15.3089 12.3879 15.6772C13.065 15.9475 13.8057 16.0169 14.5212 15.8772C15.1554 15.7031 15.7165 15.329 16.1212 14.8105C16.216 14.5746 16.2832 14.3285 16.3212 14.0772C16.3594 13.8566 16.3594 13.6311 16.3212 13.4105C16.2879 13.1772 13.8879 12.0772 13.6546 12.1438C13.4212 12.2105 13.2212 12.6438 12.9545 13.0105C12.6879 13.3772 12.5879 13.5438 12.3212 13.5438C12.0546 13.5438 10.8879 13.0772 9.78786 12.0772C9.15957 11.5324 8.66854 10.8472 8.35455 10.0772C8.35455 10.0772 8.55456 9.84384 8.82122 9.47717C9.02872 9.24982 9.17746 8.97518 9.25453 8.67717C9.25453 8.51051 8.3212 6.14384 8.08787 6.04384C7.72299 5.99255 7.35276 5.99255 6.98789 6.04384Z" fill="white"/>
</svg>
