<svg width="32" height="32" viewBox="0 0 32 32" fill="none" xmlns="http://www.w3.org/2000/svg">
<path d="M18.7328 8.00033C20.0352 8.25441 21.232 8.89134 22.1703 9.82957C23.1085 10.7678 23.7454 11.9647 23.9995 13.267M18.7328 2.66699C21.4385 2.96757 23.9616 4.17923 25.8878 6.103C27.814 8.02678 29.0289 10.5483 29.3328 13.2537M13.6355 18.4844C12.0334 16.8823 10.7683 15.0708 9.84033 13.138C9.76051 12.9717 9.7206 12.8886 9.68993 12.7834C9.58097 12.4096 9.65924 11.9506 9.88592 11.634C9.94971 11.5449 10.0259 11.4687 10.1783 11.3163C10.6445 10.8502 10.8775 10.6171 11.0299 10.3827C11.6046 9.49886 11.6046 8.35942 11.0299 7.47557C10.8775 7.2412 10.6445 7.00813 10.1783 6.54198L9.9185 6.28216C9.20991 5.57357 8.85562 5.21927 8.47511 5.02681C7.71836 4.64405 6.82468 4.64405 6.06793 5.02682C5.68742 5.21927 5.33313 5.57357 4.62454 6.28216L4.41436 6.49234C3.70819 7.1985 3.35511 7.55158 3.08545 8.03163C2.78622 8.5643 2.57107 9.39162 2.57289 10.0026C2.57452 10.5532 2.68133 10.9295 2.89494 11.6821C4.0429 15.7266 6.20887 19.5431 9.39284 22.7271C12.5768 25.911 16.3933 28.077 20.4378 29.225C21.1904 29.4386 21.5667 29.5454 22.1173 29.547C22.7283 29.5488 23.5556 29.3337 24.0883 29.0345C24.5683 28.7648 24.9214 28.4117 25.6276 27.7055L25.8377 27.4954C26.5463 26.7868 26.9006 26.4325 27.0931 26.052C27.4758 25.2952 27.4758 24.4015 27.0931 23.6448C26.9006 23.2643 26.5463 22.91 25.8377 22.2014L25.5779 21.9416C25.1118 21.4754 24.8787 21.2424 24.6443 21.09C23.7605 20.5153 22.621 20.5153 21.7372 21.09C21.5028 21.2424 21.2697 21.4754 20.8036 21.9416C20.6512 22.094 20.575 22.1702 20.4859 22.234C20.1693 22.4607 19.7103 22.5389 19.3365 22.43C19.2313 22.3993 19.1482 22.3594 18.9819 22.2796C17.0491 21.3516 15.2376 20.0865 13.6355 18.4844Z" stroke="#0092E4" stroke-width="3" stroke-linecap="round" stroke-linejoin="round"/>
</svg>
