<svg width="32" height="32" viewBox="0 0 32 32" fill="none" xmlns="http://www.w3.org/2000/svg">
<path d="M9.33329 29.3337V14.667M2.66663 17.3337V26.667C2.66663 28.1398 3.86053 29.3337 5.33329 29.3337H23.235C25.2092 29.3337 26.8882 27.8932 27.1884 25.9419L28.6243 16.6086C28.9971 14.1855 27.1224 12.0003 24.6708 12.0003H20C19.2636 12.0003 18.6666 11.4034 18.6666 10.667V5.95478C18.6666 4.13898 17.1946 2.66699 15.3788 2.66699C14.9457 2.66699 14.5533 2.92205 14.3774 3.31782L9.68521 13.8752C9.47121 14.3567 8.99371 14.667 8.4668 14.667H5.33329C3.86053 14.667 2.66663 15.8609 2.66663 17.3337Z" stroke="#0092E4" stroke-width="3" stroke-linecap="round" stroke-linejoin="round"/>
</svg>
