<svg width="32" height="32" viewBox="0 0 32 32" fill="none" xmlns="http://www.w3.org/2000/svg">
<path d="M7.99996 8.00033L14 14.0003M7.99996 8.00033H3.99996L2.66663 4.00033L3.99996 2.66699L7.99996 4.00033V8.00033ZM25.6786 3.65501L22.1751 7.1585C21.6471 7.68652 21.3831 7.95053 21.2842 8.25497C21.1972 8.52276 21.1972 8.81122 21.2842 9.07902C21.3831 9.38345 21.6471 9.64746 22.1751 10.1755L22.4915 10.4918C23.0195 11.0199 23.2835 11.2839 23.5879 11.3828C23.8557 11.4698 24.1442 11.4698 24.412 11.3828C24.7164 11.2839 24.9804 11.0199 25.5085 10.4918L28.7857 7.21462C29.1386 8.07351 29.3333 9.01418 29.3333 10.0003C29.3333 14.0504 26.05 17.3337 22 17.3337C21.5117 17.3337 21.0345 17.2859 20.573 17.1949C19.9248 17.0671 19.6007 17.0032 19.4042 17.0227C19.1953 17.0435 19.0924 17.0749 18.9073 17.1739C18.7332 17.2671 18.5586 17.4417 18.2093 17.791L8.66663 27.3336C7.56206 28.4382 5.7712 28.4382 4.66663 27.3336C3.56206 26.2291 3.56206 24.4382 4.66663 23.3336L14.2093 13.791C14.5586 13.4417 14.7332 13.2671 14.8264 13.093C14.9254 12.9079 14.9567 12.805 14.9776 12.5961C14.9971 12.3996 14.9332 12.0755 14.8054 11.4273C14.7143 10.9657 14.6666 10.4886 14.6666 10.0003C14.6666 5.95024 17.9499 2.66699 22 2.66699C23.3406 2.66699 24.5973 3.02676 25.6786 3.65501ZM16 20.0003L23.3333 27.3335C24.4379 28.4381 26.2287 28.4381 27.3333 27.3335C28.4378 26.2289 28.4378 24.4381 27.3333 23.3335L21.3004 17.3007C20.8733 17.2603 20.4569 17.1833 20.0543 17.0728C19.5356 16.9304 18.9666 17.0337 18.5862 17.4141L16 20.0003Z" stroke="#0092E4" stroke-width="3" stroke-linecap="round" stroke-linejoin="round"/>
</svg>
