<svg width="33" height="32" viewBox="0 0 33 32" fill="none" xmlns="http://www.w3.org/2000/svg">
<path d="M26.674 4.86675C26.5191 4.74145 26.3381 4.65245 26.1443 4.6063C25.9504 4.56016 25.7487 4.55803 25.554 4.60009C24.1292 4.89868 22.6584 4.90248 21.2322 4.61126C19.8059 4.32005 18.4543 3.73997 17.2607 2.90675C17.0375 2.75192 16.7723 2.66895 16.5007 2.66895C16.229 2.66895 15.9639 2.75192 15.7407 2.90675C14.547 3.73997 13.1954 4.32005 11.7691 4.61126C10.3429 4.90248 8.87208 4.89868 7.44733 4.60009C7.25258 4.55803 7.05088 4.56016 6.85706 4.6063C6.66324 4.65245 6.48223 4.74145 6.32733 4.86675C6.17263 4.99224 6.04802 5.1508 5.96265 5.33077C5.87728 5.51075 5.83331 5.70756 5.83399 5.90675V15.8401C5.83281 17.7517 6.28836 19.636 7.16271 21.336C8.03705 23.036 9.3049 24.5025 10.8607 25.6134L15.7273 29.0801C15.9531 29.2409 16.2235 29.3273 16.5007 29.3273C16.7779 29.3273 17.0482 29.2409 17.274 29.0801L22.1407 25.6134C23.6964 24.5025 24.9643 23.036 25.8386 21.336C26.713 19.636 27.1685 17.7517 27.1673 15.8401V5.90675C27.168 5.70756 27.124 5.51075 27.0387 5.33077C26.9533 5.1508 26.8287 4.99224 26.674 4.86675ZM24.5007 15.8401C24.5017 17.3264 24.1477 18.7915 23.4682 20.1134C22.7887 21.4354 21.8033 22.5759 20.594 23.4401L16.5007 26.3601L12.4073 23.4401C11.198 22.5759 10.2126 21.4354 9.53312 20.1134C8.85361 18.7915 8.49964 17.3264 8.50066 15.8401V7.44009C11.2959 7.67933 14.0954 7.03078 16.5007 5.58675C18.9059 7.03078 21.7054 7.67933 24.5007 7.44009V15.8401ZM18.554 12.7868L14.9673 16.3868L13.7807 15.1868C13.5296 14.9357 13.1891 14.7946 12.834 14.7946C12.4789 14.7946 12.1384 14.9357 11.8873 15.1868C11.6363 15.4378 11.4952 15.7784 11.4952 16.1334C11.4952 16.4885 11.6363 16.829 11.8873 17.0801L14.0207 19.2134C14.1446 19.3384 14.2921 19.4376 14.4546 19.5053C14.617 19.573 14.7913 19.6078 14.9673 19.6078C15.1433 19.6078 15.3176 19.573 15.4801 19.5053C15.6426 19.4376 15.79 19.3384 15.914 19.2134L20.5007 14.6668C20.7517 14.4157 20.8928 14.0752 20.8928 13.7201C20.8928 13.365 20.7517 13.0245 20.5007 12.7734C20.2496 12.5223 19.9091 12.3813 19.554 12.3813C19.1989 12.3813 18.8584 12.5223 18.6073 12.7734L18.554 12.7868Z" fill="#0092E4"/>
</svg>
