<svg width="32" height="32" viewBox="0 0 32 32" fill="none" xmlns="http://www.w3.org/2000/svg">
<path d="M8.00002 7.99996L14 14M8.00002 7.99996H4.00002L2.66669 3.99996L4.00002 2.66663L8.00002 3.99996V7.99996ZM25.6787 3.65464L22.1752 7.15813C21.6472 7.68615 21.3831 7.95017 21.2842 8.2546C21.1972 8.52239 21.1972 8.81086 21.2842 9.07865C21.3831 9.38309 21.6472 9.6471 22.1752 10.1751L22.4915 10.4915C23.0195 11.0195 23.2836 11.2835 23.588 11.3824C23.8558 11.4694 24.1443 11.4694 24.412 11.3824C24.7165 11.2835 24.9805 11.0195 25.5085 10.4915L28.7857 7.21425C29.1387 8.07314 29.3334 9.01382 29.3334 9.99996C29.3334 14.05 26.0501 17.3333 22 17.3333C21.5117 17.3333 21.0346 17.2856 20.573 17.1945C19.9248 17.0667 19.6007 17.0028 19.4043 17.0224C19.1954 17.0432 19.0924 17.0745 18.9074 17.1735C18.7333 17.2667 18.5587 17.4413 18.2094 17.7906L8.66669 27.3333C7.56212 28.4378 5.77126 28.4378 4.66669 27.3333C3.56212 26.2287 3.56212 24.4378 4.66669 23.3333L14.2094 13.7906C14.5587 13.4413 14.7333 13.2667 14.8264 13.0926C14.9255 12.9075 14.9568 12.8046 14.9776 12.5957C14.9972 12.3992 14.9333 12.0751 14.8054 11.4269C14.7144 10.9654 14.6667 10.4882 14.6667 9.99996C14.6667 5.94987 17.9499 2.66663 22 2.66663C23.3407 2.66663 24.5973 3.02639 25.6787 3.65464ZM16.0001 19.9999L23.3334 27.3331C24.4379 28.4377 26.2288 28.4377 27.3333 27.3331C28.4379 26.2286 28.4379 24.4377 27.3333 23.3331L21.3004 17.3004C20.8734 17.2599 20.457 17.1829 20.0544 17.0724C19.5357 16.93 18.9666 17.0334 18.5862 17.4137L16.0001 19.9999Z" stroke="#0092E4" stroke-width="3" stroke-linecap="round" stroke-linejoin="round"/>
</svg>
