<svg width="296" height="48" viewBox="0 0 296 48" fill="none" xmlns="http://www.w3.org/2000/svg">
<path fill-rule="evenodd" clip-rule="evenodd" d="M6.81551 7.40145L4.96371 9.26787L5.58056 10.2895C5.91976 10.8514 6.24344 11.3995 6.29975 11.5076C6.35607 11.6156 6.60963 12.0523 6.86319 12.4778C7.28553 13.1866 7.3151 13.2658 7.21534 13.4208C6.81637 14.0406 6.06376 15.4478 5.75883 16.1442C5.38495 16.998 4.83995 18.5749 4.70152 19.2032C4.50325 20.1036 4.49047 20.1282 4.17793 20.2116C3.59496 20.3674 1.04931 21.0339 0.551044 21.1612L0.0412537 21.2915L0.0206268 23.9655L0 26.6395L1.31471 26.9761C3.8799 27.6329 4.4209 27.7756 4.4482 27.8029C4.46333 27.8181 4.56043 28.1628 4.66395 28.5689C5.18559 30.6153 5.91075 32.3631 6.92562 34.0197C7.35628 34.7225 7.36114 34.6313 6.84758 35.4859C6.72751 35.6857 6.48979 36.0924 6.31928 36.3897C6.14886 36.6869 5.77153 37.3262 5.48087 37.8101L4.95234 38.6901L6.79441 40.541C7.80756 41.559 8.6862 42.3919 8.74698 42.3919C8.80769 42.3919 9.27372 42.1399 9.78256 41.8318C10.2913 41.5238 11.1614 41.0083 11.716 40.6864L12.7244 40.101L13.2035 40.3973C14.1208 40.9646 15.7336 41.7483 16.7214 42.1066C17.7582 42.4827 19.0864 42.8634 19.3616 42.8634C19.4497 42.8634 19.5381 42.8902 19.5584 42.9229C19.6103 43.0071 20.4514 46.1644 20.5264 46.557C20.5471 46.665 20.6168 46.9215 20.6813 47.1267C20.7948 47.4886 20.8078 47.5 21.1058 47.5H21.4132V42.7939V38.0877L20.982 38.0338C20.3881 37.9594 19.2456 37.6467 18.3545 37.3146C15.4937 36.2484 12.8695 34.0601 11.2317 31.3748C8.49264 26.8837 8.49248 21.0485 11.2313 16.5522C11.7216 15.7472 12.56 14.6677 13.1345 14.1015L13.6522 13.5912L13.6007 12.4905C13.5245 10.8592 13.7628 9.14897 14.2991 7.48004C14.4068 7.14503 14.4649 6.871 14.4283 6.871C14.3686 6.871 13.3178 7.46126 12.8921 7.73387C12.7107 7.85002 12.8753 7.93647 9.72453 6.07076C9.22697 5.77614 8.78557 5.53503 8.74353 5.53503C8.70157 5.53503 7.83399 6.37496 6.81551 7.40145Z" fill="#00AAF5"/>
<path fill-rule="evenodd" clip-rule="evenodd" d="M13.3323 16.4232C12.121 17.9764 11.2603 19.8544 10.8929 21.7454C10.6954 22.7624 10.6954 25.1645 10.8929 26.1815C11.2032 27.7786 11.8109 29.2673 12.714 30.6422C13.2802 31.5045 13.4495 31.7076 14.3309 32.5816C14.9711 33.2164 16.4552 34.3761 16.6275 34.3761C16.6546 34.3761 16.8147 34.4634 16.9834 34.5701C17.5881 34.9526 18.9793 35.4789 20.1244 35.7583C20.8373 35.9323 20.7829 36.0633 20.723 34.3172C20.642 31.958 20.307 29.5221 19.8019 27.6199C19.5599 26.7082 18.888 25.0868 18.4316 24.313C17.9203 23.4458 17.4954 22.8947 16.6782 22.0381C15.8252 21.144 14.9777 20.016 14.5822 19.2483C14.2448 18.5932 13.8663 17.488 13.682 16.6197L13.5743 16.1129L13.3323 16.4232Z" fill="#004C8A"/>
<path fill-rule="evenodd" clip-rule="evenodd" d="M20.276 0.783538C17.2754 2.59165 15.1231 5.65768 14.3399 9.23972C14.1836 9.95469 14.162 10.2738 14.162 11.8613C14.162 13.4327 14.1845 13.7714 14.3345 14.4546C14.5849 15.5954 14.9387 16.6173 15.4156 17.5768C17.3854 21.5397 21.0489 24.1214 25.4299 24.6339C26.2258 24.7271 27.867 24.7013 28.7856 24.5812C29.3966 24.5013 29.0898 24.6148 28.3534 24.7411C25.3809 25.2507 22.059 24.6022 19.4329 22.9997C19.1418 22.822 18.9035 22.6923 18.9035 22.7114C18.9035 22.7306 19.165 23.25 19.4846 23.8657C20.7075 26.2214 21.4114 28.5029 21.7648 31.2564C21.8641 32.0297 21.8838 33.4504 21.8838 39.8026V47.4215H23.0478H24.2117L24.272 40.3291C24.3051 36.4282 24.3556 31.9989 24.3841 30.4862C24.4426 27.3922 24.437 27.422 25.0415 26.9833L25.37 26.7448L26.9861 26.7687L28.6022 26.7926L28.8985 27.0193C29.4999 27.4792 29.49 27.3918 29.4399 31.8221C29.4153 33.9832 29.3697 37.1129 29.3384 38.777L29.2814 41.8026L29.2678 38.8163C29.2603 37.1738 29.2367 35.0343 29.2154 34.0618C29.1941 33.0893 29.1551 31.2748 29.1289 30.0295C29.0815 27.7824 29.0797 27.7637 28.8916 27.5397C28.5847 27.1742 28.3015 27.1246 26.8796 27.1878C26.0825 27.2232 25.5328 27.2832 25.4041 27.3489C24.9616 27.5749 24.9598 27.5968 25.0259 31.9793C25.0592 34.1836 25.1112 38.5599 25.1415 41.7043L25.1968 47.4215H28.6733H32.1497L32.1802 39.5825C32.2125 31.2713 32.2072 31.402 32.5944 29.5104C33.0598 27.2381 33.8906 25.0492 35.0608 23.012C35.6492 21.9877 36.0444 21.4078 36.9028 20.3093C38.1363 18.7306 38.8192 17.5116 39.3252 15.9854C41.0284 10.8475 39.446 5.31992 35.2722 1.82708C34.6621 1.31659 33.4098 0.498192 33.3219 0.552653C33.2857 0.57505 33.2561 3.18686 33.2561 6.35663V12.1197L31.3149 13.2416C30.2473 13.8585 28.8669 14.6579 28.2472 15.018C27.6275 15.3781 27.0847 15.6727 27.0409 15.6727C26.9736 15.6727 24.6111 14.325 21.5523 12.5417L20.7894 12.097L20.768 6.29847L20.7466 0.5L20.276 0.783538Z" fill="#FCE000"/>
<path d="M70.86 30.14H60.36L58.29 35H54.27L63.72 14H67.56L77.04 35H72.96L70.86 30.14ZM69.57 27.08L65.61 17.9L61.68 27.08H69.57ZM88.0003 26.15H84.1003V35H80.2603V14H84.1003V22.79H88.1203L94.1503 14H98.2903L91.1203 24.17L98.5603 35H94.1503L88.0003 26.15ZM101.238 14H117.588V17.21H105.078V22.37H111.288C113.808 22.37 115.718 22.9 117.018 23.96C118.338 25 118.998 26.51 118.998 28.49C118.998 30.57 118.278 32.18 116.838 33.32C115.398 34.44 113.348 35 110.688 35H101.238V14ZM110.478 32C111.978 32 113.118 31.71 113.898 31.13C114.678 30.55 115.068 29.71 115.068 28.61C115.068 26.45 113.538 25.37 110.478 25.37H105.078V32H110.478ZM121.978 25.1H130.228V28.22H121.978V25.1ZM144.618 35.3C142.498 35.3 140.578 34.84 138.858 33.92C137.158 32.98 135.818 31.69 134.838 30.05C133.878 28.41 133.398 26.56 133.398 24.5C133.398 22.44 133.888 20.59 134.868 18.95C135.848 17.31 137.188 16.03 138.888 15.11C140.608 14.17 142.528 13.7 144.648 13.7C146.368 13.7 147.938 14 149.358 14.6C150.778 15.2 151.978 16.07 152.958 17.21L150.438 19.58C148.918 17.94 147.048 17.12 144.828 17.12C143.388 17.12 142.098 17.44 140.958 18.08C139.818 18.7 138.928 19.57 138.288 20.69C137.648 21.81 137.328 23.08 137.328 24.5C137.328 25.92 137.648 27.19 138.288 28.31C138.928 29.43 139.818 30.31 140.958 30.95C142.098 31.57 143.388 31.88 144.828 31.88C147.048 31.88 148.918 31.05 150.438 29.39L152.958 31.79C151.978 32.93 150.768 33.8 149.328 34.4C147.908 35 146.338 35.3 144.618 35.3ZM170.573 27.08C170.573 27.34 170.553 27.71 170.513 28.19H157.943C158.163 29.37 158.733 30.31 159.653 31.01C160.593 31.69 161.753 32.03 163.133 32.03C164.893 32.03 166.343 31.45 167.483 30.29L169.493 32.6C168.773 33.46 167.863 34.11 166.763 34.55C165.663 34.99 164.423 35.21 163.043 35.21C161.283 35.21 159.733 34.86 158.393 34.16C157.053 33.46 156.013 32.49 155.273 31.25C154.553 29.99 154.193 28.57 154.193 26.99C154.193 25.43 154.543 24.03 155.243 22.79C155.963 21.53 156.953 20.55 158.213 19.85C159.473 19.15 160.893 18.8 162.473 18.8C164.033 18.8 165.423 19.15 166.643 19.85C167.883 20.53 168.843 21.5 169.523 22.76C170.223 24 170.573 25.44 170.573 27.08ZM162.473 21.8C161.273 21.8 160.253 22.16 159.413 22.88C158.593 23.58 158.093 24.52 157.913 25.7H167.003C166.843 24.54 166.353 23.6 165.533 22.88C164.713 22.16 163.693 21.8 162.473 21.8ZM183.554 18.8C185.114 18.8 186.504 19.14 187.724 19.82C188.964 20.5 189.934 21.46 190.634 22.7C191.334 23.94 191.684 25.37 191.684 26.99C191.684 28.61 191.334 30.05 190.634 31.31C189.934 32.55 188.964 33.51 187.724 34.19C186.504 34.87 185.114 35.21 183.554 35.21C181.394 35.21 179.684 34.49 178.424 33.05V40.82H174.674V18.98H178.244V21.08C178.864 20.32 179.624 19.75 180.524 19.37C181.444 18.99 182.454 18.8 183.554 18.8ZM183.134 32C184.514 32 185.644 31.54 186.524 30.62C187.424 29.7 187.874 28.49 187.874 26.99C187.874 25.49 187.424 24.28 186.524 23.36C185.644 22.44 184.514 21.98 183.134 21.98C182.234 21.98 181.424 22.19 180.704 22.61C179.984 23.01 179.414 23.59 178.994 24.35C178.574 25.11 178.364 25.99 178.364 26.99C178.364 27.99 178.574 28.87 178.994 29.63C179.414 30.39 179.984 30.98 180.704 31.4C181.424 31.8 182.234 32 183.134 32ZM207.026 26.66C209.006 27.26 209.996 28.54 209.996 30.5C209.996 31.94 209.456 33.05 208.376 33.83C207.296 34.61 205.696 35 203.576 35H195.416V18.98H203.246C205.206 18.98 206.736 19.34 207.836 20.06C208.936 20.78 209.486 21.8 209.486 23.12C209.486 23.94 209.266 24.65 208.826 25.25C208.406 25.85 207.806 26.32 207.026 26.66ZM198.986 25.67H202.916C204.856 25.67 205.826 25 205.826 23.66C205.826 22.36 204.856 21.71 202.916 21.71H198.986V25.67ZM203.276 32.27C205.336 32.27 206.366 31.6 206.366 30.26C206.366 29.56 206.126 29.04 205.646 28.7C205.166 28.34 204.416 28.16 203.396 28.16H198.986V32.27H203.276ZM213.991 18.98H217.741V29.54L226.591 18.98H230.011V35H226.261V24.44L217.441 35H213.991V18.98ZM242.345 35.21C240.685 35.21 239.195 34.86 237.875 34.16C236.555 33.46 235.525 32.49 234.785 31.25C234.045 29.99 233.675 28.57 233.675 26.99C233.675 25.41 234.045 24 234.785 22.76C235.525 21.52 236.545 20.55 237.845 19.85C239.165 19.15 240.665 18.8 242.345 18.8C243.925 18.8 245.305 19.12 246.485 19.76C247.685 20.4 248.585 21.32 249.185 22.52L246.305 24.2C245.845 23.46 245.265 22.91 244.565 22.55C243.885 22.17 243.135 21.98 242.315 21.98C240.915 21.98 239.755 22.44 238.835 23.36C237.915 24.26 237.455 25.47 237.455 26.99C237.455 28.51 237.905 29.73 238.805 30.65C239.725 31.55 240.895 32 242.315 32C243.135 32 243.885 31.82 244.565 31.46C245.265 31.08 245.845 30.52 246.305 29.78L249.185 31.46C248.565 32.66 247.655 33.59 246.455 34.25C245.275 34.89 243.905 35.21 242.345 35.21ZM274.788 31.7V35H259.308V32.39L267.648 24.47C268.588 23.57 269.218 22.79 269.538 22.13C269.878 21.45 270.048 20.78 270.048 20.12C270.048 19.14 269.718 18.39 269.058 17.87C268.398 17.35 267.428 17.09 266.148 17.09C264.008 17.09 262.368 17.82 261.228 19.28L258.498 17.18C259.318 16.08 260.418 15.23 261.798 14.63C263.198 14.01 264.758 13.7 266.478 13.7C268.758 13.7 270.578 14.24 271.938 15.32C273.298 16.4 273.978 17.87 273.978 19.73C273.978 20.87 273.738 21.94 273.258 22.94C272.778 23.94 271.858 25.08 270.498 26.36L264.888 31.7H274.788ZM295.319 30.23H291.599V35H287.819V30.23H276.299V27.53L286.649 14H290.819L281.069 26.93H287.939V22.7H291.599V26.93H295.319V30.23Z" fill="#118DE8"/>
</svg>
