<svg width="301" height="34" viewBox="0 0 301 34" fill="none" xmlns="http://www.w3.org/2000/svg">
<path fill-rule="evenodd" clip-rule="evenodd" d="M7.91249 0.529523C7.64278 0.59629 7.44336 0.729972 7.30551 0.936362L7.16949 1.13995L7.15463 2.776L7.13977 4.41204L4.97517 4.41356C3.78464 4.4144 2.64464 4.43644 2.4418 4.46251C1.68246 4.56016 1.05452 5.00396 0.716212 5.68204L0.532048 6.05118L0.515999 7.34263L0.5 8.63409H22.5H44.5L44.484 7.34263L44.468 6.05118L44.2818 5.67797C43.9473 5.0076 43.3118 4.55942 42.5582 4.46251C42.3554 4.43644 41.2143 4.4144 40.0224 4.41356L37.8553 4.41204L37.8542 2.85332C37.8532 1.45184 37.844 1.27476 37.7629 1.09778C37.659 0.871165 37.3703 0.601298 37.1733 0.546608C37.0989 0.525989 35.7229 0.5091 34.1155 0.5091C31.459 0.5091 31.1791 0.51671 31.0394 0.59251C30.8209 0.71117 30.5881 0.990709 30.5273 1.20736C30.4963 1.31811 30.4753 2.00051 30.4751 2.90241L30.4748 4.41204H22.5019H14.529L14.5147 2.776L14.5004 1.13995L14.3641 0.935969C14.2892 0.823741 14.1332 0.681812 14.0174 0.620543L13.8069 0.5091L10.934 0.500901C9.3539 0.496385 7.99422 0.509297 7.91249 0.529523ZM1.60885 20.6007L1.62178 30.9471L1.75448 31.3072C1.94196 31.8158 2.16635 32.1695 2.53814 32.542C2.92425 32.9289 3.31794 33.1746 3.85126 33.3614L4.24703 33.5H22.5H40.753L41.1557 33.3647C42.2176 33.008 43.0329 32.1449 43.3053 31.0891C43.401 30.7183 43.403 30.5014 43.403 20.4823V10.2542H22.4995H1.59587L1.60885 20.6007ZM25.0757 13.0525C25.1302 13.1065 25.1748 13.2134 25.1748 13.2901C25.1748 13.3667 24.6389 14.8507 23.9839 16.5876C23.3289 18.3247 22.8044 19.7753 22.8184 19.8112C22.8389 19.8644 23.3096 19.8765 25.3491 19.8765C27.4511 19.8765 27.8771 19.8881 27.9946 19.9484C28.1545 20.0302 28.1963 20.1116 28.1963 20.3403C28.1963 20.5267 28.1834 20.5445 27.3606 21.4966C21.4922 28.2871 19.7025 30.3313 19.5826 30.3805C19.3156 30.4901 18.9831 30.2829 18.9831 30.0069C18.9831 29.8544 19.2947 29.0461 20.5656 25.9015C21.1416 24.4765 21.5993 23.2891 21.5829 23.2628C21.5641 23.2327 20.6409 23.2149 19.1002 23.2149H16.6475L16.5027 23.0714C16.3289 22.8991 16.3161 22.7188 16.461 22.4833C16.5466 22.3441 18.4033 20.1515 19.9987 18.3055C20.406 17.8342 20.7506 17.4314 23.0643 14.7217C23.7675 13.8982 24.4077 13.1636 24.4871 13.0893C24.665 12.923 24.9284 12.9065 25.0757 13.0525ZM10.6913 13.6792C10.8383 13.7765 10.8597 13.9526 10.8597 15.0621V16.1945H12.0457C13.4916 16.1945 13.3859 16.1306 13.3859 17.0045C13.3859 17.8785 13.4916 17.8146 12.0457 17.8146H10.8597V18.946V20.0774L10.7381 20.1978C10.622 20.313 10.5889 20.3184 9.99511 20.3184C9.11654 20.3184 9.17558 20.4156 9.17558 18.9683V17.8146H7.97148C7.00975 17.8146 6.74806 17.8006 6.67124 17.7449C6.58431 17.6819 6.57509 17.6119 6.57509 17.016C6.57509 16.5295 6.59288 16.3356 6.64305 16.2757C6.70299 16.2042 6.85748 16.1945 7.9433 16.1945H9.17558V15.0163C9.17558 13.5388 9.11367 13.6413 10.0053 13.6424C10.3526 13.6428 10.6613 13.6594 10.6913 13.6792ZM38.3591 16.2758C38.438 16.3465 38.4497 16.4393 38.4497 16.996C38.4497 17.5217 38.4352 17.651 38.3677 17.7248C38.2899 17.8101 38.1207 17.8146 35.0157 17.8146C32.0425 17.8146 31.7375 17.8072 31.6552 17.7333C31.5761 17.6624 31.5646 17.5694 31.5646 17.0004C31.5646 16.4735 31.5795 16.334 31.6424 16.2716C31.7116 16.2031 32.0839 16.1945 34.9944 16.1945C37.9715 16.1945 38.2767 16.2019 38.3591 16.2758Z" fill="#118DE8"/>
<path d="M75.36 23.14H64.86L62.79 28H58.77L68.22 7H72.06L81.54 28H77.46L75.36 23.14ZM74.07 20.08L70.11 10.9L66.18 20.08H74.07ZM92.5003 19.15H88.6003V28H84.7603V7H88.6003V15.79H92.6203L98.6503 7H102.79L95.6203 17.17L103.06 28H98.6503L92.5003 19.15ZM105.738 7H122.088V10.21H109.578V15.37H115.788C118.308 15.37 120.218 15.9 121.518 16.96C122.838 18 123.498 19.51 123.498 21.49C123.498 23.57 122.778 25.18 121.338 26.32C119.898 27.44 117.848 28 115.188 28H105.738V7ZM114.978 25C116.478 25 117.618 24.71 118.398 24.13C119.178 23.55 119.568 22.71 119.568 21.61C119.568 19.45 118.038 18.37 114.978 18.37H109.578V25H114.978ZM126.478 18.1H134.728V21.22H126.478V18.1ZM149.118 28.3C146.998 28.3 145.078 27.84 143.358 26.92C141.658 25.98 140.318 24.69 139.338 23.05C138.378 21.41 137.898 19.56 137.898 17.5C137.898 15.44 138.388 13.59 139.368 11.95C140.348 10.31 141.688 9.03 143.388 8.11C145.108 7.17 147.028 6.7 149.148 6.7C150.868 6.7 152.438 7 153.858 7.6C155.278 8.2 156.478 9.07 157.458 10.21L154.938 12.58C153.418 10.94 151.548 10.12 149.328 10.12C147.888 10.12 146.598 10.44 145.458 11.08C144.318 11.7 143.428 12.57 142.788 13.69C142.148 14.81 141.828 16.08 141.828 17.5C141.828 18.92 142.148 20.19 142.788 21.31C143.428 22.43 144.318 23.31 145.458 23.95C146.598 24.57 147.888 24.88 149.328 24.88C151.548 24.88 153.418 24.05 154.938 22.39L157.458 24.79C156.478 25.93 155.268 26.8 153.828 27.4C152.408 28 150.838 28.3 149.118 28.3ZM175.073 20.08C175.073 20.34 175.053 20.71 175.013 21.19H162.443C162.663 22.37 163.233 23.31 164.153 24.01C165.093 24.69 166.253 25.03 167.633 25.03C169.393 25.03 170.843 24.45 171.983 23.29L173.993 25.6C173.273 26.46 172.363 27.11 171.263 27.55C170.163 27.99 168.923 28.21 167.543 28.21C165.783 28.21 164.233 27.86 162.893 27.16C161.553 26.46 160.513 25.49 159.773 24.25C159.053 22.99 158.693 21.57 158.693 19.99C158.693 18.43 159.043 17.03 159.743 15.79C160.463 14.53 161.453 13.55 162.713 12.85C163.973 12.15 165.393 11.8 166.973 11.8C168.533 11.8 169.923 12.15 171.143 12.85C172.383 13.53 173.343 14.5 174.023 15.76C174.723 17 175.073 18.44 175.073 20.08ZM166.973 14.8C165.773 14.8 164.753 15.16 163.913 15.88C163.093 16.58 162.593 17.52 162.413 18.7H171.503C171.343 17.54 170.853 16.6 170.033 15.88C169.213 15.16 168.193 14.8 166.973 14.8ZM188.054 11.8C189.614 11.8 191.004 12.14 192.224 12.82C193.464 13.5 194.434 14.46 195.134 15.7C195.834 16.94 196.184 18.37 196.184 19.99C196.184 21.61 195.834 23.05 195.134 24.31C194.434 25.55 193.464 26.51 192.224 27.19C191.004 27.87 189.614 28.21 188.054 28.21C185.894 28.21 184.184 27.49 182.924 26.05V33.82H179.174V11.98H182.744V14.08C183.364 13.32 184.124 12.75 185.024 12.37C185.944 11.99 186.954 11.8 188.054 11.8ZM187.634 25C189.014 25 190.144 24.54 191.024 23.62C191.924 22.7 192.374 21.49 192.374 19.99C192.374 18.49 191.924 17.28 191.024 16.36C190.144 15.44 189.014 14.98 187.634 14.98C186.734 14.98 185.924 15.19 185.204 15.61C184.484 16.01 183.914 16.59 183.494 17.35C183.074 18.11 182.864 18.99 182.864 19.99C182.864 20.99 183.074 21.87 183.494 22.63C183.914 23.39 184.484 23.98 185.204 24.4C185.924 24.8 186.734 25 187.634 25ZM211.526 19.66C213.506 20.26 214.496 21.54 214.496 23.5C214.496 24.94 213.956 26.05 212.876 26.83C211.796 27.61 210.196 28 208.076 28H199.916V11.98H207.746C209.706 11.98 211.236 12.34 212.336 13.06C213.436 13.78 213.986 14.8 213.986 16.12C213.986 16.94 213.766 17.65 213.326 18.25C212.906 18.85 212.306 19.32 211.526 19.66ZM203.486 18.67H207.416C209.356 18.67 210.326 18 210.326 16.66C210.326 15.36 209.356 14.71 207.416 14.71H203.486V18.67ZM207.776 25.27C209.836 25.27 210.866 24.6 210.866 23.26C210.866 22.56 210.626 22.04 210.146 21.7C209.666 21.34 208.916 21.16 207.896 21.16H203.486V25.27H207.776ZM218.491 11.98H222.241V22.54L231.091 11.98H234.511V28H230.761V17.44L221.941 28H218.491V11.98ZM246.845 28.21C245.185 28.21 243.695 27.86 242.375 27.16C241.055 26.46 240.025 25.49 239.285 24.25C238.545 22.99 238.175 21.57 238.175 19.99C238.175 18.41 238.545 17 239.285 15.76C240.025 14.52 241.045 13.55 242.345 12.85C243.665 12.15 245.165 11.8 246.845 11.8C248.425 11.8 249.805 12.12 250.985 12.76C252.185 13.4 253.085 14.32 253.685 15.52L250.805 17.2C250.345 16.46 249.765 15.91 249.065 15.55C248.385 15.17 247.635 14.98 246.815 14.98C245.415 14.98 244.255 15.44 243.335 16.36C242.415 17.26 241.955 18.47 241.955 19.99C241.955 21.51 242.405 22.73 243.305 23.65C244.225 24.55 245.395 25 246.815 25C247.635 25 248.385 24.82 249.065 24.46C249.765 24.08 250.345 23.52 250.805 22.78L253.685 24.46C253.065 25.66 252.155 26.59 250.955 27.25C249.775 27.89 248.405 28.21 246.845 28.21ZM279.288 24.7V28H263.808V25.39L272.148 17.47C273.088 16.57 273.718 15.79 274.038 15.13C274.378 14.45 274.548 13.78 274.548 13.12C274.548 12.14 274.218 11.39 273.558 10.87C272.898 10.35 271.928 10.09 270.648 10.09C268.508 10.09 266.868 10.82 265.728 12.28L262.998 10.18C263.818 9.08 264.918 8.23 266.298 7.63C267.698 7.01 269.258 6.7 270.978 6.7C273.258 6.7 275.078 7.24 276.438 8.32C277.798 9.4 278.478 10.87 278.478 12.73C278.478 13.87 278.238 14.94 277.758 15.94C277.278 16.94 276.358 18.08 274.998 19.36L269.388 24.7H279.288ZM299.819 23.23H296.099V28H292.319V23.23H280.799V20.53L291.149 7H295.319L285.569 19.93H292.439V15.7H296.099V19.93H299.819V23.23Z" fill="#118DE8"/>
</svg>
